<?xml version="1.0" encoding="UTF-8"?>
<svg width="479px" height="129px" viewBox="0 0 479 129" version="1.1" xmlns="http://www.w3.org/2000/svg" xmlns:xlink="http://www.w3.org/1999/xlink">
    <!-- Generator: Sketch 58 (84663) - https://sketch.com -->
    <title>Group</title>
    <desc>Created with Sketch.</desc>
    <g id="Page-1" stroke="none" stroke-width="1" fill="none" fill-rule="evenodd">
        <g id="Group">
            <g id="Group-8">
                <polygon id="Fill-1" fill="#D7DF32" points="55.6722 0.0003 55.6462 0.0143 55.6462 22.0653 55.6462 22.0803 55.6722 22.0653"></polygon>
                <polygon id="Fill-2" fill="#D53A5D" points="19.1097 85.359 0.0257 96.371 0.0257 96.385 55.6727 128.514 111.3187 96.385 92.2087 85.359 55.6727 106.448 55.6627 106.442 55.6627 106.448 30.2657 91.789 19.1237 85.359 19.1237 85.34"></polygon>
                <polygon id="Fill-3" fill="#F9B742" points="55.6722 0.0003 55.6722 22.0653 92.2082 43.1553 92.2082 85.3593 111.3182 96.3853 111.3182 32.1283"></polygon>
                <polygon id="Fill-4" fill="#E27A5B" points="55.6461 0.0003 0.0001 32.1283 0.0001 96.3853 0.0261 96.3703 19.1101 85.3593 19.1231 85.3403 19.1231 43.1553 55.6461 22.0803 55.6461 22.0653 55.6461 0.0143"></polygon>
                <polygon id="Fill-5" fill="#FFB229" points="39.0914 82.223 31.8224 78.027 31.8224 50.487 55.6634 64.257 55.6634 91.786 55.6694 91.788 55.6694 64.257 79.5114 50.487 55.6694 36.726 55.6534 36.735 31.8204 50.487 31.8204 78.015 31.8204 78.027"></polygon>
                <polygon id="Fill-6" fill="#B72546" points="55.6695 64.2571 55.6695 91.7881 79.5115 78.0271 79.5115 50.4861"></polygon>
                <polygon id="Fill-7" fill="#E25B5B" points="31.8223 50.4866 31.8223 78.0266 39.0913 82.2226 55.6633 91.7886 55.6633 91.7856 55.6633 64.2576"></polygon>
            </g>
            <path d="M163.3505,85.079 L184.0985,85.079 L184.0985,97 L147.7895,97 L147.7895,32.663 L163.3505,32.663 L163.3505,85.079 Z M239.5175,70.246 C239.5175,71.5200064 239.365835,72.9153257 239.0625,74.432 L203.8455,74.432 C204.027501,78.2540191 204.998158,80.9991583 206.7575,82.6675 C208.516842,84.3358417 210.761486,85.17 213.4915,85.17 C215.796845,85.17 217.707826,84.5936724 219.2245,83.441 C220.741174,82.2883276 221.742164,80.8020091 222.2275,78.982 L238.6985,78.982 C238.031163,82.5613512 236.575178,85.7614859 234.3305,88.5825 C232.085822,91.4035141 229.234517,93.6178253 225.7765,95.2255 C222.318483,96.8331747 218.466188,97.637 214.2195,97.637 C209.244808,97.637 204.831353,96.5905105 200.979,94.4975 C197.126647,92.4044895 194.108511,89.3863531 191.9245,85.443 C189.740489,81.499647 188.6485,76.8890264 188.6485,71.611 C188.6485,66.2723066 189.725323,61.6465196 191.879,57.7335 C194.032677,53.8204804 197.050814,50.8175105 200.9335,48.7245 C204.816186,46.6314895 209.244808,45.585 214.2195,45.585 C219.254859,45.585 223.683481,46.616323 227.5055,48.679 C231.327519,50.741677 234.28499,53.6384813 236.378,57.3695 C238.47101,61.1005187 239.5175,65.3926424 239.5175,70.246 Z M223.7745,67.88 C223.835167,64.5433167 222.940343,62.0408417 221.09,60.3725 C219.239657,58.7041583 216.949514,57.87 214.2195,57.87 C211.368152,57.87 209.002176,58.7193248 207.1215,60.418 C205.240824,62.1166752 204.179168,64.6039836 203.9365,67.88 L223.7745,67.88 Z M271.0945,81.803 L282.1055,46.222 L298.6675,46.222 L280.6495,97 L261.3575,97 L243.3395,46.222 L259.9015,46.222 L271.0945,81.803 Z M303.6725,31.935 C303.6725,29.5689882 304.521825,27.6125077 306.2205,26.0655 C307.919175,24.5184923 310.163819,23.745 312.9545,23.745 C315.745181,23.745 317.989825,24.5184923 319.6885,26.0655 C321.387175,27.6125077 322.2365,29.5689882 322.2365,31.935 C322.2365,34.2403449 321.387175,36.1664923 319.6885,37.7135 C317.989825,39.2605077 315.745181,40.034 312.9545,40.034 C310.163819,40.034 307.919175,39.2605077 306.2205,37.7135 C304.521825,36.1664923 303.6725,34.2403449 303.6725,31.935 Z M320.6895,46.222 L320.6895,97 L305.1285,97 L305.1285,46.222 L320.6895,46.222 Z M381.9325,46.222 L381.9325,97 L366.2805,97 L366.2805,87.809 C364.824493,90.7816815 362.655681,93.1476579 359.774,94.907 C356.892319,96.6663421 353.540519,97.546 349.7185,97.546 C343.894471,97.546 339.268684,95.6046861 335.841,91.722 C332.413316,87.8393139 330.6995,82.5007006 330.6995,75.706 L330.6995,46.222 L346.1695,46.222 L346.1695,73.795 C346.1695,77.2530173 347.064324,79.9374904 348.854,81.8485 C350.643676,83.7595096 353.055152,84.715 356.0885,84.715 C359.243182,84.715 361.730491,83.71401 363.5505,81.712 C365.370509,79.70999 366.2805,76.8586852 366.2805,73.158 L366.2805,46.222 L381.9325,46.222 Z M458.4635,45.676 C464.712198,45.676 469.626149,47.6021474 473.2055,51.4545 C476.784851,55.3068526 478.5745,60.6606324 478.5745,67.516 L478.5745,97 L463.1045,97 L463.1045,69.336 C463.1045,66.1206506 462.240009,63.6181756 460.511,61.8285 C458.781991,60.0388244 456.431182,59.144 453.4585,59.144 C450.364485,59.144 447.922676,60.0994904 446.133,62.0105 C444.343324,63.9215096 443.4485,66.6059827 443.4485,70.064 L443.4485,97 L427.8875,97 L427.8875,69.336 C427.8875,66.1206506 427.038175,63.6181756 425.3395,61.8285 C423.640825,60.0388244 421.305182,59.144 418.3325,59.144 C415.238485,59.144 412.781509,60.0843239 410.9615,61.965 C409.141491,63.8456761 408.2315,66.5453157 408.2315,70.064 L408.2315,97 L392.6705,97 L392.6705,46.222 L408.2315,46.222 L408.2315,54.867 C409.566173,52.0156524 411.613653,49.7710082 414.374,48.133 C417.134347,46.4949918 420.364815,45.676 424.0655,45.676 C427.948186,45.676 431.375818,46.5708244 434.3485,48.3605 C437.321182,50.1501756 439.565826,52.7133167 441.0825,56.05 C442.841842,52.8953176 445.253318,50.3776761 448.317,48.497 C451.380682,46.6163239 454.762815,45.676 458.4635,45.676 Z" id="Levium" fill="#FFFFFF" fill-rule="nonzero"></path>
        </g>
    </g>
</svg>