<svg width="25" height="26" viewBox="0 0 25 26" fill="none" xmlns="http://www.w3.org/2000/svg">
<path d="M10.125 25.7812C11.7128 25.7812 13 24.4941 13 22.9062C13 21.3184 11.7128 20.0312 10.125 20.0312C8.53718 20.0312 7.25 21.3184 7.25 22.9062C7.25 24.4941 8.53718 25.7812 10.125 25.7812Z" fill="white"/>
<path d="M18.625 20.0312C17.0372 20.0312 15.75 21.3185 15.75 22.9062C15.75 24.494 17.0372 25.7812 18.625 25.7812C20.2128 25.7812 21.5 24.494 21.5 22.9062C21.5 21.3185 20.2128 20.0312 18.625 20.0312Z" fill="white"/>
<path d="M23.8429 16.96H8.39183L8.08946 15.1995H20.789C21.1626 15.2006 21.4986 14.9717 21.6356 14.6228L24.6593 6.97361C24.843 6.50573 24.6141 5.97691 24.148 5.79254C24.0412 5.75027 23.9274 5.72875 23.8127 5.7291H6.51714L5.79146 1.54027C5.71693 1.09736 5.33176 0.775144 4.88435 0.781338H1.40711C0.906131 0.781338 0.5 1.18913 0.5 1.69204C0.5 2.19496 0.906131 2.60266 1.40711 2.60266H4.12843L6.7288 18.0224C6.80333 18.4653 7.1885 18.7875 7.63591 18.7813H23.8429C24.3439 18.7813 24.75 18.3735 24.75 17.8706C24.75 17.3677 24.3439 16.96 23.8429 16.96Z" fill="white"/>
</svg>
